#!OML:ASF X:\für Bonn\!DataBase\2005_08_12_Daniel\c3d\Daniel.ASF
:FULLY-SPECIFIED
:DEGREES
17
root 3.82925 17.3132 0.0998686 -56.9061 85.7157 -422.5
lowerback 29.6445 -2.8891 3.97997
upperback 9.59598 -1.66476 -0.149465
thorax -5.61318 -0.398198 -1.93844
lowerneck 1.54406 2.11242 -7.43382
upperneck 5.25571 2.92234 -1.13609
head 1.28694 1.33637 0.905923
rclavicle -1.66979e-014 1.63003e-014
rhumerus -68.3371 -16.9808 -47.3332
rradius 5.52672
rwrist 69.4181
rhand -14.7235 15.6561
rfingers 7.12502
rthumb 11.4314 -14.0122
lclavicle -1.66979e-014 1.63003e-014
lhumerus -79.5049 25.7996 19.4061
lradius 13.1058
lwrist -85.406
lhand -7.88722 -10.5878
lfingers 7.12502
lthumb 18.0174 18.5976
rfemur -34.2661 -0.133282 23.4849
rtibia 56.1652
rfoot -10.3816 -4.39456
rtoes -14.0011
lfemur -37.269 4.32175 -16.0242
ltibia 58.3517
lfoot -16.4767 -8.44456
ltoes -10.313
18
root 3.92418 17.4085 0.103815 -58.5667 85.7886 -424.44
lowerback 29.4151 -2.89209 3.88705
upperback 9.66898 -1.70147 -0.120826
thorax -5.42367 -0.412245 -1.84465
lowerneck 1.35659 2.09511 -7.52337
upperneck 5.30017 2.91168 -1.03165
head 1.33136 1.32774 0.957921
rclavicle 3.57812e-015 6.36111e-015
rhumerus -69.527 -16.2007 -46.6622
rradius 5.97073
rwrist 69.6981
rhand -14.1351 16.4707
rfingers 7.12502
rthumb 11.9988 -13.1653
lclavicle 3.57812e-015 6.36111e-015
lhumerus -80.2701 24.7935 19.1731
lradius 13.4009
lwrist -84.8235
lhand -7.28074 -10.8016
lfingers 7.12502
lthumb 18.6008 18.3291
rfemur -33.9966 -0.274291 23.585
rtibia 55.5059
rfoot -9.38728 -5.01721
rtoes -14.0351
lfemur -36.774 4.43431 -16.0395
ltibia 57.4201
lfoot -15.6394 -8.68418
ltoes -10.5241
19
root 4.01917 17.4979 0.106349 -60.0893 85.8463 -426.271
lowerback 29.1573 -2.89275 3.78795
upperback 9.73621 -1.73883 -0.0851728
thorax -5.22688 -0.427758 -1.74012
lowerneck 1.25206 2.09344 -7.63156
upperneck 5.25032 2.90968 -0.911395
head 1.33098 1.32646 1.01571
rclavicle -3.97569e-016 1.98785e-015
rhumerus -70.7923 -15.2741 -45.9702
rradius 6.76196
rwrist 69.7994
rhand -13.6695 17.5052
rfingers 7.12502
rthumb 12.4478 -12.1041
lclavicle -3.97569e-016 1.98785e-015
lhumerus -80.7559 23.6744 19.7441
lradius 13.732
lwrist -83.3184
lhand -6.73358 -11.0263
lfingers 7.12502
lthumb 19.127 18.0532
rfemur -33.8237 -0.44107 23.6847
rtibia 54.9302
rfoot -8.45877 -5.59759
rtoes -13.8813
lfemur -36.3419 4.50687 -16.0547
ltibia 56.5435
lfoot -14.8121 -8.84579
ltoes -10.6314
20
root 4.11167 17.5814 0.10931 -61.4842 85.9161 -427.954
lowerback 28.9105 -2.88886 3.6992
upperback 9.82606 -1.76613 -0.0743934
thorax -5.01001 -0.436518 -1.67289
lowerneck 1.23378 2.08032 -7.74106
upperneck 5.07476 2.8774 -0.747914
head 1.27629 1.31454 1.08453
rclavicle 1.51076e-014 1.74931e-014
rhumerus -72.0503 -14.3855 -45.3106
rradius 7.66278
rwrist 69.6724
rhand -13.4208 18.6653
rfingers 7.12502
rthumb 12.6876 -10.9293
lclavicle 1.51076e-014 1.74931e-014
lhumerus -81.0041 22.5 20.9406
lradius 14.1589
lwrist -81.1251
lhand -6.3132 -11.3847
lfingers 7.12502
lthumb 19.5312 17.6543
rfemur -33.6858 -0.665632 23.7781
rtibia 54.4301
rfoot -7.60386 -6.13143
rtoes -13.7898
lfemur -35.9357 4.52477 -16.0812
ltibia 55.7357
lfoot -14.0663 -8.96078
ltoes -10.7957
21
root 4.20172 17.6574 0.112135 -62.7628 85.9578 -429.52
lowerback 28.669 -2.88044 3.60406
upperback 9.92749 -1.78662 -0.051702
thorax -4.78171 -0.441792 -1.59141
lowerneck 1.30588 2.07135 -7.83514
upperneck 4.72496 2.83687 -0.612363
head 1.15176 1.30359 1.13832
rclavicle 9.14409e-015 -8.74653e-015
rhumerus -73.2473 -13.4767 -44.6744
rradius 8.66314
rwrist 69.392
rhand -13.5025 19.9068
rfingers 7.12502
rthumb 12.6088 -9.69265
lclavicle 9.14409e-015 -8.74653e-015
lhumerus -81.1259 21.2536 22.8351
lradius 14.7307
lwrist -78.1549
lhand -5.96992 -11.726
lfingers 7.12502
lthumb 19.8613 17.2792
rfemur -33.6264 -0.923611 23.8965
rtibia 54.017
rfoot -6.80272 -6.58713
rtoes -13.5813
lfemur -35.5918 4.51792 -16.0829
ltibia 55.0208
lfoot -13.3489 -9.03359
ltoes -10.9117
22
root 4.29017 17.7267 0.115207 -63.7946 85.9859 -430.86
lowerback 28.4261 -2.86391 3.50289
upperback 10.0206 -1.79818 -0.0180148
thorax -4.56103 -0.444052 -1.49745
lowerneck 1.34771 2.06984 -7.97659
upperneck 4.37101 2.80917 -0.463368
head 1.03049 1.29835 1.20537
rclavicle -1.11319e-014 1.19271e-014
rhumerus -74.2916 -12.6469 -44.0747
rradius 9.57951
rwrist 68.9603
rhand -13.8472 21.1102
rfingers 7.12502
rthumb 12.2764 -8.50948
lclavicle -1.11319e-014 1.19271e-014
lhumerus -81.2525 20.0594 24.9661
lradius 15.3305
lwrist -74.8528
lhand -5.88224 -12.0683
lfingers 7.12502
lthumb 19.9456 16.9281
rfemur -33.6471 -1.22756 24.0329
rtibia 53.671
rfoot -6.02745 -6.95174
rtoes -13.5361
lfemur -35.336 4.4828 -16.0786
ltibia 54.3829
lfoot -12.6793 -9.04538
ltoes -11.018
23
root 4.37574 17.7907 0.1173 -64.5942 86.0332 -431.938
lowerback 28.2265 -2.84845 3.3809
upperback 10.1097 -1.81456 -0.000451241
thorax -4.36516 -0.449109 -1.40731
lowerneck 1.48683 2.0765 -8.07406
upperneck 3.87935 2.77806 -0.293564
head 0.849955 1.29617 1.26884
rclavicle 1.39149e-014 -7.95139e-016
rhumerus -75.2087 -11.9249 -43.5455
rradius 10.3882
rwrist 68.2354
rhand -14.3244 22.2947
rfingers 7.12502
rthumb 11.8163 -7.35191
lclavicle 1.39149e-014 -7.95139e-016
lhumerus -81.2931 18.7263 27.8334
lradius 16.0961
lwrist -70.71
lhand -5.82926 -12.3654
lfingers 7.12502
lthumb 19.9965 16.6257
rfemur -33.6902 -1.46926 24.128
rtibia 53.3809
rfoot -5.39564 -7.25335
rtoes -13.9178
lfemur -35.1 4.36835 -16.0951
ltibia 53.8269
lfoot -12.0777 -9.00069
ltoes -11.1785
24
root 4.46093 17.8522 0.121676 -65.3734 86.0736 -433.031
lowerback 28.0077 -2.81778 3.25271
upperback 10.1792 -1.81528 0.0262503
thorax -4.18102 -0.44867 -1.30878
lowerneck 1.59791 2.0857 -8.17941
upperneck 3.36489 2.75287 -0.10174
head 0.666973 1.29715 1.34168
rclavicle 2.18663e-014 3.18055e-015
rhumerus -75.1818 -10.2779 -47.267
rradius 11.02
rwrist 63.2203
rhand -14.9188 22.5403
rfingers 7.12502
rthumb 11.2431 -7.13838
lclavicle 2.18663e-014 3.18055e-015
lhumerus -81.4401 17.4638 30.7063
lradius 16.9026
lwrist -66.5564
lhand -5.91224 -12.5524
lfingers 7.12502
lthumb 19.9167 16.447
rfemur -33.7951 -1.67967 24.2468
rtibia 53.1351
rfoot -4.82019 -7.41988
rtoes -14.6574
lfemur -34.9221 4.19093 -16.0836
ltibia 53.3278
lfoot -11.5463 -8.90044
ltoes -11.266
25
root 4.54532 17.9081 0.125238 -66.1552 86.0956 -434.114
lowerback 27.8254 -2.78974 3.16769
upperback 10.2363 -1.80684 0.0458772
thorax -4.02871 -0.443757 -1.24491
lowerneck 2.0055 2.10275 -8.35851
upperneck 2.5759 2.70093 0.171298
head 0.347534 1.29245 1.44838
rclavicle -7.55382e-015 -6.36111e-015
rhumerus -75.346 -8.95683 -50.2879
rradius 11.6506
rwrist 58.7267
rhand -15.5051 22.7847
rfingers 7.12502
rthumb 10.6776 -6.92397
lclavicle -7.55382e-015 -6.36111e-015
lhumerus -81.6139 16.1335 33.9661
lradius 17.8306
lwrist -61.8696
lhand -6.05978 -12.6643
lfingers 7.12502
lthumb 19.7749 16.3498
rfemur -33.9148 -1.79703 24.3667
rtibia 52.9048
rfoot -4.24385 -7.3642
rtoes -15.219
lfemur -34.7945 3.98561 -16.053
ltibia 52.9238
lfoot -11.0596 -8.76069
ltoes -11.2612
26
root 4.62865 17.9573 0.130588 -66.6311 86.1311 -434.922
lowerback 27.6872 -2.74463 3.05034
upperback 10.2425 -1.78623 0.0729551
thorax -3.95208 -0.437028 -1.15682
lowerneck 2.69637 2.11755 -8.49396
upperneck 1.54832 2.61837 0.320172
head -0.0908258 1.2795 1.50619
rclavicle -1.27222e-014 -6.36111e-015
rhumerus -75.6534 -7.62767 -53.4097
rradius 12.4418
rwrist 53.8887
rhand -16.0579 22.8954
rfingers 7.12502
rthumb 10.1443 -6.84003
lclavicle -1.27222e-014 -6.36111e-015
lhumerus -82.1214 14.9684 36.8078
lradius 18.9047
lwrist -57.5539
lhand -6.14499 -12.8333
lfingers 7.12502
lthumb 19.693 16.1892
rfemur -34.0839 -1.91087 24.4766
rtibia 52.6789
rfoot -3.73084 -6.98129
rtoes -15.5159
lfemur -34.7465 3.70361 -16.0132
ltibia 52.6257
lfoot -10.6273 -8.54847
ltoes -11.1383
27
root 4.71284 17.9945 0.136176 -66.9729 86.1666 -435.59
lowerback 27.6001 -2.70534 2.92362
upperback 10.2455 -1.7723 0.0964458
thorax -3.90328 -0.433688 -1.06437
lowerneck 3.18176 2.09653 -8.55399
upperneck 0.592094 2.5147 0.36125
head -0.470228 1.25431 1.52324
rclavicle 1.63003e-014 3.10104e-014
rhumerus -75.9788 -6.58504 -55.9592
rradius 13.2183
rwrist 49.474
rhand -16.4631 23.0167
rfingers 7.12502
rthumb 9.75337 -6.73743
lclavicle 1.63003e-014 3.10104e-014
lhumerus -82.8843 14.0774 39.2458
lradius 20.1436
lwrist -53.4481
lhand -6.08946 -13.0285
lfingers 7.12502
lthumb 19.7464 15.9885
rfemur -34.2386 -1.9712 24.5709
rtibia 52.4263
rfoot -3.20304 -6.37936
rtoes -15.1502
lfemur -34.768 3.39721 -15.9725
ltibia 52.4749
lfoot -10.2601 -8.31452
ltoes -10.9112
28
root 4.79662 18.0201 0.141575 -67.4652 86.1761 -436.427
lowerback 27.5618 -2.6676 2.82639
upperback 10.2389 -1.74951 0.132166
thorax -3.88806 -0.426029 -0.977151
lowerneck 3.4578 2.05952 -8.59445
upperneck -0.314928 2.41334 0.375853
head -0.80039 1.22923 1.53314
rclavicle -4.77083e-015 -1.47101e-014
rhumerus -76.3343 -5.70547 -58.3067
rradius 14.0715
rwrist 45.2197
rhand -16.8903 22.9444
rfingers 7.12502
rthumb 9.34115 -6.82864
lclavicle -4.77083e-015 -1.47101e-014
lhumerus -83.7655 13.4105 41.4259
lradius 21.4497
lwrist -49.5958
lhand -6.08503 -13.2621
lfingers 7.12502
lthumb 19.7506 15.7544
rfemur -34.4232 -2.02177 24.6998
rtibia 52.1555
rfoot -2.73778 -5.66753
rtoes -14.4453
lfemur -34.8921 3.02448 -15.8898
ltibia 52.4766
lfoot -9.98616 -8.03203
ltoes -10.6552
29
root 4.88184 18.0398 0.148035 -67.6311 86.2073 -436.945
lowerback 27.5623 -2.61187 2.68688
upperback 10.2305 -1.71323 0.155031
thorax -3.89199 -0.41229 -0.883191
lowerneck 3.52603 1.98165 -8.50493
upperneck -1.17506 2.28514 0.312946
head -1.07731 1.19027 1.49873
rclavicle 7.95139e-015 1.70955e-014
rhumerus -76.6129 -5.26179 -59.8521
rradius 14.7653
rwrist 41.6821
rhand -17.3736 22.8074
rfingers 7.12502
rthumb 8.87481 -6.986
lclavicle 7.95139e-015 1.70955e-014
lhumerus -84.6253 12.8218 43.7461
lradius 22.9105
lwrist -45.4671
lhand -5.92266 -13.5798
lfingers 7.12502
lthumb 19.9067 15.4206
rfemur -34.6493 -2.0256 24.7989
rtibia 51.8903
rfoot -2.40054 -4.9366
rtoes -13.3687
lfemur -35.0677 2.63613 -15.8307
ltibia 52.6167
lfoot -9.82515 -7.70387
ltoes -10.3993
